<svg width="815" height="502" viewBox="0 0 815 502" fill="none" xmlns="http://www.w3.org/2000/svg">
<g opacity="0.6">
<path d="M814.974 -67.0771H620.203V492.29H814.974V-67.0771Z" fill="#C3F8C7"/>
<path d="M504.716 -67.2676H309.635V488.487H504.716V-67.2676Z" fill="#C3F8C7"/>
<path d="M0 501.274V282.259C82.2774 282.143 161.15 245.267 219.292 179.73C277.435 114.194 310.093 25.3569 310.093 -67.2676L504.864 -67.2676C504.761 83.4512 451.543 227.967 356.889 334.558C262.236 441.15 133.882 501.109 0 501.274Z" fill="#9EF0A5"/>
<path d="M310.08 501.274V282.259C392.367 282.159 471.254 245.291 529.408 179.752C587.563 114.214 620.228 25.3677 620.228 -67.2676L815 -67.2676C814.882 83.4569 761.651 227.972 666.989 334.562C572.327 441.152 443.967 501.109 310.08 501.274Z" fill="#9EF0A5"/>
</g>
</svg>
