<svg width="866" height="404" viewBox="0 0 866 404" fill="none" xmlns="http://www.w3.org/2000/svg">
<g opacity="0.2">
<path d="M0 0H241.032L331.419 139.635L241.032 465.452H0L90.3871 139.635L0 0Z" fill="#75BEE9"/>
<path d="M0 0H241.032L331.419 139.635L241.032 465.452L0 0Z" fill="#0072BC"/>
<path d="M301.289 0H542.321L632.708 139.635L542.321 465.452H301.289L391.676 139.635L301.289 0Z" fill="#75BEE9"/>
<path d="M602.582 0H843.614L934.001 139.635L843.614 465.452H602.582L692.969 139.635L602.582 0Z" fill="#75BEE9"/>
<path d="M301.289 0H542.321L632.708 139.635L542.321 465.452L301.289 0Z" fill="#0072BC"/>
<path d="M602.582 0H843.614L934.001 139.635L843.614 465.452L602.582 0Z" fill="#0072BC"/>
</g>
</svg>
